<svg xmlns="http://www.w3.org/2000/svg" xmlns:xlink="http://www.w3.org/1999/xlink" width="100" height="100" viewBox="0 0 100 100"><svg viewBox="0 0 99.999997 99.999997"><g transform="translate(-149.6453,-589.21878)"><path d="m 199.64552,591.21879 a 48.000099,48.000099 0 0 0 -48.00022,48.00022 48.000099,48.000099 0 0 0 48.00022,47.99977 48.000099,48.000099 0 0 0 47.99977,-47.99977 48.000099,48.000099 0 0 0 -47.99977,-48.00022 z m 0,5.42088 a 42.107528,42.578935 0 0 1 42.10718,42.57934 42.107528,42.578935 0 0 1 -42.10718,42.57887 42.107528,42.578935 0 0 1 -42.10763,-42.57887 42.107528,42.578935 0 0 1 42.10763,-42.57934 z" fill="#68B4FF"></path></g></svg><g transform="translate(50 50) scale(0.69 0.69) rotate(-30) translate(-50 -50)" style="fill:#0059B3"><svg fill="#0059B3" xmlns="http://www.w3.org/2000/svg" xmlns:xlink="http://www.w3.org/1999/xlink" version="1.1" x="0px" y="0px" viewBox="0 0 100 100" style="enable-background:new 0 0 100 100;" xml:space="preserve"><path d="M93.8,82.5h-7.3l1-0.3c0.7-0.2,1-0.8,0.9-1.5l-1.2-4.4l0,0l0,0L73.5,25.4l0,0l0,0L72.3,21c-0.2-0.6-0.8-1-1.5-0.9l-8.4,2.2  v-11c0-0.7-0.5-1.2-1.2-1.2H47.5c-0.7,0-1.2,0.5-1.2,1.2v71.1h-1.2v-71c0-0.7-0.5-1.2-1.2-1.2H30.2c-0.7,0-1.2,0.5-1.2,1.2v71.1  h-1.2V11.4c0-0.7-0.5-1.2-1.2-1.2H12.9c-0.7,0-1.2,0.5-1.2,1.2v71.1H6.2C5.5,82.5,5,83,5,83.7v4.9c0,0.7,0.5,1.2,1.2,1.2h87.6  c0.7,0,1.2-0.5,1.2-1.2v-4.9C95,83,94.5,82.5,93.8,82.5z M85.6,80.2l-7.6,2l-0.6-2.1l7.6-2L85.6,80.2z M76.9,77.8l-13-48.5l7.6-2  l13,48.5L76.9,77.8z M48.7,27.6H60v40H48.7V27.6z M70.8,24.8l-7.6,2l-0.6-2.1l7.6-2L70.8,24.8z M60,25.2H48.7V23H60V25.2z   M48.7,70.1H60v2.2H48.7V70.1z M62.4,33.2l12.4,46.4l0,0l0,0l0.8,2.9H62.4V33.2z M60,12.6v8H48.7v-8H60z M48.7,74.6H60v7.8H48.7  V74.6z M31.4,27.6h11.3v40H31.4V27.6z M42.7,25.2H31.4V23h11.3V25.2z M31.4,70.1h11.3v2.2H31.4V70.1z M42.7,12.6v8H31.4v-8H42.7z   M31.4,74.6h11.3v7.8H31.4V74.6z M14.1,27.6h11.3v40H14.1V27.6z M25.3,25.2H14.1V23h11.3v2.2H25.3z M14.1,70.1h11.3v2.2H14.1V70.1z   M25.3,12.6v8H14.1v-8H25.3z M14.1,74.6h11.3v7.8H14.1V74.6z M92.6,87.4H7.4v-2.5h85.1v2.5H92.6z"></path></svg></g></svg>